<svg viewBox="0 0 380.74 135.77" xmlns="http://www.w3.org/2000/svg"><path d="m302.7 18.28a25.48 25.48 0 0 0 -48.89 0h-253.81v117.49h380.74v-117.49z" fill="#fff"/><g fill="#1fa4db"><path d="m314.36 82a4.43 4.43 0 0 1 -8 1.55 4.37 4.37 0 0 1 -.64-3.32 4.42 4.42 0 0 1 8.64 1.77zm36.32 2.88a4.41 4.41 0 0 0 -5.21 3.45 4.42 4.42 0 1 0 5.21-3.45zm17.25 15.78a5.08 5.08 0 0 1 -3.6-1.14c-2.32-2.2-4.64-8.54-6.88-18.85a1.27 1.27 0 1 1 2.48-.54c2.8 12.85 5.05 16.51 6.15 17.55.88.83 3.56.55 7.94-.8l.09-22.88c-1.49-2.73-2.7-4.69-3-5.18-1.53-2.44-9.28-1.13-14.29.59a1.27 1.27 0 1 1 -.82-2.41c1.43-.49 14.08-4.64 17.27.48.13.21.45.72.87 1.43l.18-43.62h-70.32v.21a25.73 25.73 0 0 1 -15 23.32v9.23c3.88-3.29 7.24-5.67 7.9-6.13 4.95-3.46 14.95 5.3 16.08 6.31a1.27 1.27 0 0 1 -1.7 1.89c-3.94-3.53-10.55-7.78-12.92-6.12a113.52 113.52 0 0 0 -9.36 7.41l-.05 20.42c1.22.69 2.15 1 2.74.74 1.42-.53 4.92-3 12.52-13.75a1.27 1.27 0 1 1 2.08 1.46c-6.1 8.62-10.71 13.55-13.71 14.67a3.71 3.71 0 0 1 -1.28.22 6.29 6.29 0 0 1 -2.36-.53l-.07 24.84h85.13v-9.89a23 23 0 0 1 -6.07 1.11zm-51-18.14a7.05 7.05 0 0 1 -6.9 5.63 6.72 6.72 0 0 1 -1.4-.14 7 7 0 1 1 8.3-5.49zm18.66 17.75a3.93 3.93 0 0 1 -3.24 1.68h-.35c-2.38 0-3.79-1.88-4.53-3.76a5.6 5.6 0 0 1 -6.55 1.43 3.37 3.37 0 0 1 -2.11-2.45c-.36-2 1.46-3.91 1.66-4.12a1 1 0 0 1 1.45 1.42c-.34.35-1.26 1.51-1.11 2.35 0 .14.1.56 1 1 3.07 1.44 5.17-2.16 5.26-2.32a1 1 0 0 1 1.06-.49 1 1 0 0 1 .82.84s.69 4.3 3.28 4.1a2 2 0 0 0 1.67-.73 3 3 0 0 0 0-2.28 1 1 0 0 1 1.89-.74 5 5 0 0 1 -.21 4.11zm21.12-9.65a7.05 7.05 0 0 1 -6.9 5.63 6.72 6.72 0 0 1 -1.4-.14 7 7 0 1 1 8.3-5.49z"/><path d="m108.83 85.64.08-60.36h24.21l-.09 48.18h12.1l.01 12.18z"/><path d="m157.03 25.28h24.09v84.2h-24.09z"/></g><path d="m17.67 119.84h-3.91v9.54h-3.43v-9.54h-4v-3.47h11.34z" fill="#ee52a6"/><path d="m32.91 129.38h-11.43v-3.28h8.05v-1.71h-8v-8h11.31v3.28h-8v1.52h8.1z" fill="#1fa4db"/><path d="m48.52 129.42h-11.15v-13h3.36v9.58h4.43v-9.59h3.36z" fill="#ee52a6"/><path d="m65.21 129.38h-4.3l-4.2-4.81v4.81h-3.36v-13h3.36v4l3.7-4h4.3l-5.71 6.2z" fill="#1fa4db"/><path d="m80.3 129.42h-11.16v-13h3.36v9.58h4.43v-9.59h3.37z" fill="#ee52a6"/><path d="m95.88 126.81-2.56 2.57h-8.4v-13h8.43l2.53 2.53zm-3.37-1.94v-4l-1.05-1.05h-3.18v6.09h3.18z" fill="#1fa4db"/><path d="m111.81 129.38h-3.36v-3.57h-4.72v3.57h-3.39v-13h11.47zm-3.36-6.9v-2.68h-4.74v2.68z" fill="#ee52a6"/><path d="m127.47 129.38h-2.57l-5.2-6.95v6.95h-3.27v-13h2.4l5.38 7.07v-7.07h3.26z" fill="#1fa4db"/><path d="m135.51 129.38h-3.42v-13h3.42z" fill="#ee52a6"/><path d="m159.18 129.38h-2.57l-5.2-6.95v6.95h-3.27v-13h2.4l5.38 7.07v-7.07h3.26z" fill="#1fa4db"/><path d="m175.72 129.38h-11.92v-13h11.92zm-3.35-3.38v-6.29h-5.19v6.29z" fill="#ee52a6"/><path d="m192.41 129.38h-4l-3.28-4.67h-1.43v4.67h-3.36v-13h11.51v8.34h-3zm-4-7.93v-1.85h-4.71v1.85z" fill="#1fa4db"/><path d="m200.28 129.38h-3.41v-13h3.41z" fill="#ee52a6"/><path d="m216.82 129.38h-11.91v-13h11.91zm-3.35-3.38v-6.29h-5.19v6.29z" fill="#1fa4db"/><path d="m240.71 124.91h-7.89v4.47h-3.36v-13h11.25zm-3.48-3.36v-1.75h-4.41v1.75z" fill="#ee52a6"/><path d="m257.08 129.38h-4l-3.28-4.67h-1.45v4.67h-3.35v-13h11.51v8.34h-3zm-4-7.93v-1.85h-4.68v1.85z" fill="#1fa4db"/><path d="m273.45 129.38h-11.91v-13h11.91zm-3.35-3.38v-6.29h-5.18v6.29z" fill="#ee52a6"/><path d="m289 126.81-2.55 2.57h-8.41v-13h8.44l2.52 2.52zm-3.36-1.94v-4l-1.05-1.05h-3.19v6.09h3.19z" fill="#1fa4db"/><path d="m304.64 129.42h-11.15v-13h3.36v9.58h4.43v-9.59h3.36z" fill="#ee52a6"/><path d="m319.82 129.38h-10.56v-13h10.56v3.44h-7.1v6.12h7.1z" fill="#1fa4db"/><path d="m334.62 119.84h-3.91v9.54h-3.42v-9.54h-4v-3.47h11.31z" fill="#ee52a6"/><path d="m342 129.38h-3.4v-13h3.4z" fill="#1fa4db"/><path d="m358.54 129.38h-11.91v-13h11.91zm-3.34-3.38v-6.29h-5.2v6.29z" fill="#ee52a6"/><path d="m374.21 129.38h-2.57l-5.21-6.95v6.95h-3.26v-13h2.39l5.38 7.07v-7.07h3.27z" fill="#1fa4db"/><path d="m252.56 25.49c0-.08 0-.17 0-.25h-60.12v24.21h54.72l-31.3 60h28.85l29.12-58.65a25.74 25.74 0 0 1 -21.27-25.31z" fill="#ee52a6"/><path d="m278.26 4.75a20.74 20.74 0 1 0 20.74 20.74 20.77 20.77 0 0 0 -20.74-20.74zm-4.74 28.93v-15.25l14.48 7.62z" fill="#ffe100"/><g fill="#ee52a6"><path d="m46.75 99.21 1.99-11.76-11.16 3.84z"/><path d="m48.08 47.19a6.35 6.35 0 1 0 8.07 3.94 6.36 6.36 0 0 0 -8.07-3.94z"/><path d="m16.76 71.42a6.35 6.35 0 1 0 -8.07-3.94 6.37 6.37 0 0 0 8.07 3.94z"/><path d="m7.18 25.28v23.4l11.11.68-.16 2.53-10.95-.68v9.2a9.31 9.31 0 0 1 4.62-3.41 8.88 8.88 0 1 1 5.79 16.8 9.1 9.1 0 0 1 -10.41-3.44v39.12h54.2v-60.23h11.9v60.23h23.93l.21-84.2zm39.9 7.55 1.7 1.89-10.94 9.83-1.69-1.89zm-12 33.4 2 11.52 4.51-1.55.82 2.4-7.31 2.52-2.5-14.46zm13.4 37.84-15.9-13.74 19.42-6.67zm4.52-42.47a8.89 8.89 0 1 1 5.51-11.3 8.9 8.9 0 0 1 -5.51 11.3z"/></g><path d="m273.52 33.68v-15.25l14.51 7.62z" fill="#fff"/></svg>