<svg enable-background="new 0 0 380.7 135.8" viewBox="0 0 380.7 135.8" xmlns="http://www.w3.org/2000/svg"><g fill="#fff"><path d="m17.7 119.8h-3.9v9.5h-3.4v-9.5h-4v-3.5h11.3z"/><path d="m32.9 129.4h-11.4v-3.3h8v-1.7h-8v-8h11.3v3.3h-8v1.5h8.1z"/><path d="m48.5 129.4h-11.1v-13h3.4v9.6h4.4v-9.6h3.4z"/><path d="m65.2 129.4h-4.3l-4.2-4.8v4.8h-3.4v-13h3.4v4l3.7-4h4.3l-5.7 6.2z"/><path d="m80.3 129.4h-11.2v-13h3.4v9.6h4.4v-9.6h3.4z"/><path d="m95.9 126.8-2.6 2.6h-8.4v-13h8.4l2.5 2.5v7.9zm-3.4-1.9v-4l-1.1-1.1h-3.2v6.1h3.2z"/><path d="m111.8 129.4h-3.4v-3.6h-4.7v3.6h-3.4v-13h11.5zm-3.4-6.9v-2.7h-4.7v2.7z"/><path d="m127.5 129.4h-2.6l-5.2-6.9v6.9h-3.3v-13h2.4l5.4 7.1v-7.1h3.3z"/><path d="m135.5 129.4h-3.4v-13h3.4z"/><path d="m159.2 129.4h-2.6l-5.2-6.9v6.9h-3.3v-13h2.4l5.4 7.1v-7.1h3.3z"/><path d="m175.7 129.4h-11.9v-13h11.9zm-3.3-3.4v-6.3h-5.2v6.3z"/><path d="m192.4 129.4h-4l-3.3-4.7h-1.4v4.7h-3.4v-13h11.5v8.3h-3zm-4-7.9v-1.8h-4.7v1.8z"/><path d="m200.3 129.4h-3.4v-13h3.4z"/><path d="m216.8 129.4h-11.9v-13h11.9zm-3.3-3.4v-6.3h-5.2v6.3z"/><path d="m240.7 124.9h-7.9v4.5h-3.4v-13h11.2v8.5zm-3.5-3.3v-1.8h-4.4v1.8z"/><path d="m257.1 129.4h-4l-3.3-4.7h-1.4v4.7h-3.4v-13h11.5v8.3h-3zm-4-7.9v-1.8h-4.7v1.8z"/><path d="m273.5 129.4h-11.9v-13h11.9zm-3.4-3.4v-6.3h-5.2v6.3z"/><path d="m289 126.8-2.5 2.6h-8.5v-13h8.4l2.5 2.5v7.9zm-3.4-1.9v-4l-1-1.1h-3.2v6.1h3.2z"/><path d="m304.6 129.4h-11.1v-13h3.4v9.6h4.4v-9.6h3.4z"/><path d="m319.8 129.4h-10.6v-13h10.6v3.4h-7.1v6.1h7.1z"/><path d="m334.6 119.8h-3.9v9.5h-3.4v-9.5h-4v-3.5h11.3z"/><path d="m342 129.4h-3.4v-13h3.4z"/><path d="m358.5 129.4h-11.9v-13h11.9zm-3.3-3.4v-6.3h-5.2v6.3z"/><path d="m374.2 129.4h-2.6l-5.2-6.9v6.9h-3.3v-13h2.4l5.4 7.1v-7.1h3.3z"/><path d="m314.4 82c-.5 2.4-2.9 3.9-5.3 3.4-1.1-.2-2.1-.9-2.7-1.8-.7-1-.9-2.2-.6-3.3.7-2.4 3.1-3.7 5.4-3.1 2.1.5 3.5 2.6 3.2 4.8zm36.3 2.9c-2.4-.5-4.7 1-5.2 3.4s1.1 4.7 3.4 5.2 4.7-1.1 5.2-3.4c.5-2.4-1-4.7-3.4-5.2zm17.2 15.8c-1.3.1-2.6-.3-3.6-1.1-2.3-2.2-4.6-8.5-6.9-18.8-.2-.7.2-1.4.9-1.5.7-.2 1.4.2 1.5.9v.1c2.8 12.8 5 16.5 6.1 17.5.9.8 3.6.6 7.9-.8l.1-22.9c-1.5-2.7-2.7-4.7-3-5.2-1.5-2.4-9.3-1.1-14.3.6-.7.2-1.4-.1-1.6-.8s.1-1.4.8-1.6c1.4-.5 14.1-4.6 17.3.5.1.2.5.7.9 1.4l.2-43.6h-70.2v.2c0 10-5.9 19.1-15 23.3v9.1c3.9-3.3 7.2-5.7 7.9-6.1 5-3.5 15 5.3 16.1 6.3.5.5.6 1.3.1 1.8s-1.3.6-1.8.1c-3.9-3.5-10.5-7.8-12.9-6.1-3.2 2.3-6.4 4.8-9.4 7.4v20.4c1.2.7 2.1 1 2.7.7 1.4-.5 4.9-3 12.5-13.8.4-.6 1.2-.7 1.8-.3s.7 1.2.3 1.8c-6.1 8.6-10.7 13.6-13.7 14.7-.4.1-.8.2-1.3.2-.8 0-1.6-.2-2.4-.5l-.1 24.8h85.2v-9.9c-2 .7-4 1.1-6.1 1.2zm-51-18.2c-.7 3.3-3.6 5.6-6.9 5.6-.5 0-.9 0-1.4-.1-3.8-.8-6.2-4.5-5.4-8.3s4.5-6.2 8.3-5.4 6.2 4.5 5.4 8.2zm18.7 17.8c-.7 1.1-1.9 1.7-3.2 1.7h-.4c-2.4 0-3.8-1.9-4.5-3.8-1.6 1.9-4.3 2.5-6.5 1.4-1.1-.4-1.9-1.3-2.1-2.4-.4-2 1.5-3.9 1.7-4.1.4-.4 1-.4 1.4 0s.4 1 0 1.4c-.3.3-1.3 1.5-1.1 2.3 0 .1.1.6 1 1 3.1 1.4 5.2-2.2 5.3-2.3.2-.4.6-.6 1.1-.5.4.1.8.4.8.8 0 0 .7 4.3 3.3 4.1.6 0 1.3-.2 1.7-.7.3-.7.3-1.5 0-2.3-.2-.5.1-1.1.6-1.3s1.1.1 1.3.6c.3 1.3.2 2.8-.4 4.1zm21.1-9.7c-.7 3.3-3.6 5.6-6.9 5.6-.5 0-.9 0-1.4-.1-3.8-.8-6.2-4.5-5.4-8.3s4.5-6.2 8.3-5.4c3.7.8 6.2 4.5 5.4 8.2z"/><path d="m278.3 4.8c-11.5 0-20.7 9.3-20.7 20.7 0 11.5 9.3 20.7 20.7 20.7 11.5 0 20.7-9.3 20.7-20.7 0-11.5-9.3-20.7-20.7-20.7zm-4.8 28.9v-15.3l14.5 7.6z"/><path d="m252.6 25.5c0-.1 0-.2 0-.2h-60.1v24.2h54.7l-31.3 60h28.9l29.1-58.7c-12.4-2.2-21.3-12.8-21.3-25.3z"/><path d="m108.8 85.6.1-60.4h24.2l-.1 48.3h12.1v12.2h-36.3z"/><path d="m157 25.3h24.1v84.2h-24.1z"/><path d="m46.8 99.2 2-11.8-11.2 3.8z"/><path d="m48.1 47.2c-3.3 1.1-5.1 4.8-3.9 8.1 1.1 3.3 4.8 5.1 8.1 3.9 3.3-1.1 5.1-4.8 3.9-8.1s-4.8-5-8.1-3.9z"/><path d="m16.8 71.4c3.3-1.1 5.1-4.8 3.9-8.1-1.1-3.3-4.8-5.1-8.1-3.9-3.3 1.1-5.1 4.8-3.9 8.1 1.1 3.3 4.7 5 8.1 3.9z"/><path d="m7.2 25.3v23.4l11.1.7-.2 2.5-10.9-.7v9.2c1.1-1.6 2.8-2.8 4.6-3.4 4.6-1.6 9.7.9 11.3 5.5s-.9 9.7-5.5 11.3c-3.8 1.3-8.1-.1-10.4-3.4v39.1h54.2v-60.3h11.9v60.2h23.9l.2-84.2zm39.9 7.5 1.7 1.9-10.9 9.8-1.7-1.9zm-12 33.4 2 11.5 4.5-1.6.8 2.4-7.3 2.5-2.5-14.5zm13.4 37.9-15.9-13.8 19.4-6.6zm4.5-42.5c-4.6 1.6-9.7-.9-11.3-5.5s.9-9.7 5.5-11.3 9.7.9 11.3 5.5-.9 9.7-5.5 11.3z"/></g></svg>